<?xml version="1.0" encoding="utf-8"?>
<!-- Generator: Adobe Illustrator 28.0.0, SVG Export Plug-In . SVG Version: 6.00 Build 0)  -->
<svg version="1.1" id="Layer_1" xmlns="http://www.w3.org/2000/svg" xmlns:xlink="http://www.w3.org/1999/xlink" x="0px" y="0px"
	 viewBox="0 0 512 512" style="enable-background:new 0 0 512 512;" xml:space="preserve">
<style type="text/css">
	.st0{fill:#F8F9FA;}
</style>
<path class="st0" d="M384,234.7V85.3H277.3C277.3,38.3,239.1,0,192,0s-85.3,38.3-85.3,85.3H0v245.3C0,360.1,23.9,384,53.3,384h96
	v74.7c0,29.4,23.9,53.3,53.3,53.3h256c29.4,0,53.3-23.9,53.3-53.3v-224H384z M192,21.3c35.3,0,64,28.7,64,64H128
	C128,50,156.7,21.3,192,21.3z M149.3,234.7v128h-96c-17.6,0-32-14.4-32-32v-224h85.3v64H128v-64h128v64h21.3v-64h85.3v128H149.3z
	 M490.7,458.7c0,17.6-14.4,32-32,32h-256c-17.6,0-32-14.4-32-32V256h320V458.7z M256,352v-53.3h21.3V352c0,29.4,23.9,53.3,53.3,53.3
	S384,381.4,384,352v-53.3h21.3V352c0,41.2-33.5,74.7-74.7,74.7S256,393.2,256,352z"/>
</svg>
