<?xml version="1.0" encoding="utf-8"?>
<!-- Generator: Adobe Illustrator 28.0.0, SVG Export Plug-In . SVG Version: 6.00 Build 0)  -->
<svg version="1.1" id="Layer_1" xmlns="http://www.w3.org/2000/svg" xmlns:xlink="http://www.w3.org/1999/xlink" x="0px" y="0px"
	 viewBox="0 0 512 512" style="enable-background:new 0 0 512 512;" xml:space="preserve">
<style type="text/css">
	.st0{fill:#F8F9FA;}
</style>
<path class="st0" d="M512,85.3v21.3H341.3V85.3H512z M192,469.3c0,23.5-19.2,42.7-42.7,42.7s-42.7-19.2-42.7-42.7
	s19.2-42.7,42.7-42.7S192,445.9,192,469.3z M170.7,469.3c0-11.7-9.6-21.3-21.3-21.3s-21.3,9.6-21.3,21.3s9.6,21.3,21.3,21.3
	S170.7,481.1,170.7,469.3z M405.3,469.3c0,23.5-19.2,42.7-42.7,42.7S320,492.8,320,469.3s19.2-42.7,42.7-42.7
	S405.3,445.9,405.3,469.3z M384,469.3c0-11.7-9.6-21.3-21.3-21.3c-11.7,0-21.3,9.6-21.3,21.3s9.6,21.3,21.3,21.3
	C374.4,490.7,384,481.1,384,469.3z M446.7,298.7H125.4l-26.7-192h178.6V85.3H95.8l-5.5-39.3C86.6,19.8,64,0,37.5,0H0v21.3h37.5
	c16,0,29.4,11.9,31.8,27.5l43.1,310.4c3.6,26.2,26.2,46.1,52.9,46.1h261.5V384H165.1c-16,0-29.4-11.9-31.8-27.5l-5.1-36.5H464
	l29.9-149.3h-21.8l-25.6,128L446.7,298.7z M277.3,85.3h64v21.3h-64V85.3z"/>
</svg>
